<svg width="10" height="12" viewBox="0 0 10 12" fill="none" xmlns="http://www.w3.org/2000/svg">
<path d="M6.6875 0.5H1.625C1.32663 0.5 1.04048 0.615892 0.829505 0.822182C0.618526 1.02847 0.5 1.30826 0.5 1.6V10.4C0.5 10.6917 0.618526 10.9715 0.829505 11.1778C1.04048 11.3841 1.32663 11.5 1.625 11.5H8.375C8.67337 11.5 8.95952 11.3841 9.17049 11.1778C9.38147 10.9715 9.5 10.6917 9.5 10.4V3.25L6.6875 0.5Z" stroke="#4A4846" stroke-linecap="round" stroke-linejoin="round"/>
<path d="M6.5 0.5V2.5C6.5 2.76522 6.60536 3.01957 6.79289 3.20711C6.98043 3.39464 7.23478 3.5 7.5 3.5H9.5" stroke="#4A4846" stroke-linecap="round" stroke-linejoin="round"/>
<path d="M3.5 4.5H2.5" stroke="#4A4846" stroke-linecap="round" stroke-linejoin="round"/>
<path d="M7.5 7.5H2.5" stroke="#4A4846" stroke-linecap="round" stroke-linejoin="round"/>
<path d="M7.5 9.5H2.5" stroke="#4A4846" stroke-linecap="round" stroke-linejoin="round"/>
</svg>
