<svg width="14" height="17" viewBox="0 0 14 17" fill="none" xmlns="http://www.w3.org/2000/svg">
<path d="M9 0.75H2.25C1.85218 0.75 1.47064 0.904523 1.18934 1.17958C0.908035 1.45463 0.75 1.82768 0.75 2.21667V13.95C0.75 14.339 0.908035 14.712 1.18934 14.9871C1.47064 15.2621 1.85218 15.4167 2.25 15.4167H11.25C11.6478 15.4167 12.0294 15.2621 12.3107 14.9871C12.592 14.712 12.75 14.339 12.75 13.95V4.41667L9 0.75Z" stroke="#4A4846" stroke-width="1.5" stroke-linecap="round" stroke-linejoin="round"/>
<path d="M8.75 0.75V3.41667C8.75 3.77029 8.89048 4.10943 9.14052 4.35948C9.39057 4.60952 9.72971 4.75 10.0833 4.75H12.75" stroke="#4A4846" stroke-width="1.5" stroke-linecap="round" stroke-linejoin="round"/>
<path d="M4.7513 6.08594H3.41797" stroke="#4A4846" stroke-width="1.5" stroke-linecap="round" stroke-linejoin="round"/>
<path d="M10.0846 10.0859H3.41797" stroke="#4A4846" stroke-width="1.5" stroke-linecap="round" stroke-linejoin="round"/>
<path d="M10.0846 12.75H3.41797" stroke="#4A4846" stroke-width="1.5" stroke-linecap="round" stroke-linejoin="round"/>
</svg>
