<svg width="14" height="14" viewBox="0 0 14 14" fill="none" xmlns="http://www.w3.org/2000/svg">
<path d="M6.60156 12.6016C7.93156 12.6015 9.22387 12.1597 10.2756 11.3456C11.3273 10.5315 12.0788 9.3911 12.4122 8.10356M6.60156 12.6016C5.27156 12.6015 3.97925 12.1597 2.92754 11.3456C1.87583 10.5315 1.12428 9.3911 0.790898 8.10356M6.60156 12.6016C8.25823 12.6016 9.60156 9.9149 9.60156 6.60156C9.60156 3.28823 8.25823 0.601563 6.60156 0.601563M6.60156 12.6016C4.94489 12.6016 3.60156 9.9149 3.60156 6.60156C3.60156 3.28823 4.94489 0.601563 6.60156 0.601563M12.4122 8.10356C12.5356 7.62356 12.6016 7.12023 12.6016 6.60156C12.6032 5.56964 12.3375 4.55489 11.8302 3.65623M12.4122 8.10356C10.6343 9.08915 8.63435 9.60475 6.60156 9.60156C4.49356 9.60156 2.5129 9.05823 0.790898 8.10356M0.790898 8.10356C0.66473 7.61288 0.601114 7.10821 0.601565 6.60156C0.601565 5.53156 0.881565 4.52623 1.3729 3.65623M6.60156 0.601563C7.66572 0.601119 8.71084 0.883801 9.62968 1.42061C10.5485 1.95741 11.308 2.72901 11.8302 3.65623M6.60156 0.601563C5.5374 0.601119 4.49228 0.883801 3.57343 1.42061C2.65459 1.95741 1.8951 2.72901 1.3729 3.65623M11.8302 3.65623C10.3787 4.91352 8.52191 5.60433 6.60156 5.60156C4.60289 5.60156 2.7749 4.86823 1.3729 3.65623" stroke="#4A4846" stroke-width="1.2" stroke-linecap="round" stroke-linejoin="round"/>
</svg>
