<svg width="13" height="13" viewBox="0 0 13 13" fill="none" xmlns="http://www.w3.org/2000/svg">
<path d="M6.5 12.5C7.82999 12.4999 9.1223 12.0581 10.174 11.244C11.2257 10.4299 11.9773 9.28954 12.3107 8.002M6.5 12.5C5.17 12.4999 3.87769 12.0581 2.82598 11.244C1.77427 10.4299 1.02272 9.28954 0.689336 8.002M6.5 12.5C8.15666 12.5 9.49999 9.81333 9.49999 6.5C9.49999 3.18667 8.15666 0.500001 6.5 0.500001M6.5 12.5C4.84333 12.5 3.5 9.81333 3.5 6.5C3.5 3.18667 4.84333 0.500001 6.5 0.500001M12.3107 8.002C12.434 7.522 12.5 7.01867 12.5 6.5C12.5016 5.46807 12.2359 4.45333 11.7287 3.55467M12.3107 8.002C10.5328 8.98759 8.53279 9.50319 6.5 9.5C4.392 9.5 2.41133 8.95667 0.689336 8.002M0.689336 8.002C0.563167 7.51132 0.499552 7.00665 0.500002 6.5C0.500002 5.43 0.780002 4.42467 1.27134 3.55467M6.5 0.500001C7.56416 0.499557 8.60928 0.782239 9.52812 1.31904C10.447 1.85585 11.2065 2.62744 11.7287 3.55467M6.5 0.500001C5.43584 0.499557 4.39072 0.782239 3.47187 1.31904C2.55303 1.85585 1.79354 2.62744 1.27134 3.55467M11.7287 3.55467C10.2771 4.81195 8.42035 5.50276 6.5 5.5C4.50133 5.5 2.67333 4.76667 1.27134 3.55467" stroke="#4A4846" stroke-linecap="round" stroke-linejoin="round"/>
</svg>
