<svg width="11" height="13" viewBox="0 0 11 13" fill="none" xmlns="http://www.w3.org/2000/svg">
<path d="M8.5 5.57692V3.26923C8.5 2.53479 8.18393 1.83042 7.62132 1.31109C7.05871 0.791757 6.29565 0.5 5.5 0.5C4.70435 0.5 3.94129 0.791757 3.37868 1.31109C2.81607 1.83042 2.5 2.53479 2.5 3.26923V5.57692M2 12.5H9C9.39782 12.5 9.77936 12.3541 10.0607 12.0945C10.342 11.8348 10.5 11.4826 10.5 11.1154V6.96154C10.5 6.59432 10.342 6.24213 10.0607 5.98247C9.77936 5.7228 9.39782 5.57692 9 5.57692H2C1.60218 5.57692 1.22064 5.7228 0.93934 5.98247C0.658035 6.24213 0.5 6.59432 0.5 6.96154V11.1154C0.5 11.4826 0.658035 11.8348 0.93934 12.0945C1.22064 12.3541 1.60218 12.5 2 12.5Z" stroke="#4A4846" stroke-linecap="round" stroke-linejoin="round"/>
</svg>
