<svg width="14" height="12" viewBox="0 0 14 12" fill="none" xmlns="http://www.w3.org/2000/svg">
<path d="M6.75 4.84091V8.47727M8.59615 6.65909H4.90385M7.40231 2.30152L6.09769 1.01667C6.01199 0.932153 5.91021 0.865102 5.79818 0.819346C5.68614 0.77359 5.56605 0.750025 5.44477 0.75H2.13462C1.76739 0.75 1.41521 0.893669 1.15554 1.1494C0.895879 1.40513 0.75 1.75198 0.75 2.11364V9.38636C0.75 9.74802 0.895879 10.0949 1.15554 10.3506C1.41521 10.6063 1.76739 10.75 2.13462 10.75H11.3654C11.7326 10.75 12.0848 10.6063 12.3445 10.3506C12.6041 10.0949 12.75 9.74802 12.75 9.38636V3.93182C12.75 3.57016 12.6041 3.22331 12.3445 2.96758C12.0848 2.71185 11.7326 2.56818 11.3654 2.56818H8.05523C7.8105 2.56797 7.57525 2.47205 7.40231 2.30152Z" stroke="#4A4846" stroke-width="1.5" stroke-linecap="round" stroke-linejoin="round"/>
</svg>
