<svg width="14" height="16" viewBox="0 0 14 16" fill="none" xmlns="http://www.w3.org/2000/svg">
<path d="M8.74273 5.5964L8.49109 12.0578M5.00891 12.0578L4.75727 5.5964M12.0067 3.29184C12.2555 3.32918 12.5027 3.36866 12.75 3.41102M12.0067 3.29184L11.23 13.2589C11.1983 13.6647 11.0126 14.0437 10.71 14.3201C10.4074 14.5966 10.0103 14.7501 9.598 14.75H3.902C3.48971 14.7501 3.09256 14.5966 2.78999 14.3201C2.48741 14.0437 2.3017 13.6647 2.27 13.2589L1.49327 3.29184M12.0067 3.29184C11.1674 3.16658 10.3236 3.07151 9.47727 3.00683M1.49327 3.29184C1.24455 3.32846 0.997273 3.36795 0.75 3.4103M1.49327 3.29184C2.33264 3.16658 3.17635 3.07151 4.02273 3.00683M9.47727 3.00683V2.3492C9.47727 1.50205 8.81545 0.795604 7.95727 0.76904C7.15263 0.743653 6.34737 0.743653 5.54273 0.76904C4.68455 0.795604 4.02273 1.50276 4.02273 2.3492V3.00683M9.47727 3.00683C7.6618 2.86832 5.8382 2.86832 4.02273 3.00683" stroke="#FB3A2C" stroke-width="1.5" stroke-linecap="round" stroke-linejoin="round"/>
</svg>
