<svg width="14" height="13" viewBox="0 0 14 13" fill="none" xmlns="http://www.w3.org/2000/svg">
<path d="M5.71179 11.1409C5.81729 11.3262 5.96873 11.48 6.15094 11.5868C6.33315 11.6937 6.53973 11.75 6.75 11.75C6.96027 11.75 7.16685 11.6937 7.34906 11.5868C7.53127 11.48 7.6827 11.3262 7.78821 11.1409L12.5892 2.5837C12.6945 2.39795 12.7499 2.18726 12.75 1.97278C12.7501 1.7583 12.6947 1.54758 12.5895 1.36177C12.4843 1.17597 12.333 1.02163 12.1507 0.914249C11.9684 0.806866 11.7616 0.750221 11.551 0.750001L1.94902 0.75C1.73843 0.75022 1.53161 0.806865 1.34932 0.914248C1.16703 1.02163 1.01569 1.17597 0.910495 1.36177C0.805297 1.54757 0.749946 1.7583 0.75 1.97278C0.750054 2.18726 0.805511 2.39795 0.910803 2.58369L5.71179 11.1409Z" stroke="currentColor" stroke-width="1.5" stroke-linecap="round" stroke-linejoin="round"/>
</svg>
