<svg width="14" height="13" viewBox="0 0 14 13" fill="none" xmlns="http://www.w3.org/2000/svg">
<path d="M7.78821 1.35907C7.6827 1.17381 7.53127 1.02005 7.34906 0.913154C7.16685 0.806262 6.96027 0.75 6.75 0.75C6.53973 0.75 6.33315 0.806262 6.15094 0.913154C5.96873 1.02005 5.8173 1.17381 5.71179 1.35907L0.910803 9.91631C0.805511 10.1021 0.750054 10.3127 0.75 10.5272C0.749946 10.7417 0.805297 10.9524 0.910495 11.1382C1.01569 11.324 1.16703 11.4784 1.34932 11.5858C1.53161 11.6931 1.73843 11.7498 1.94902 11.75H11.551C11.7616 11.7498 11.9684 11.6931 12.1507 11.5858C12.333 11.4784 12.4843 11.324 12.5895 11.1382C12.6947 10.9524 12.7501 10.7417 12.75 10.5272C12.7499 10.3127 12.6945 10.1021 12.5892 9.91631L7.78821 1.35907Z" stroke="currentColor" stroke-width="1.5" stroke-linecap="round" stroke-linejoin="round"/>
</svg>
