<svg width="14" height="16" viewBox="0 0 14 16" fill="none" xmlns="http://www.w3.org/2000/svg">
<path d="M10.35 6.67308V3.98077C10.35 3.12392 9.97072 2.30216 9.29558 1.69627C8.62045 1.09038 7.70478 0.75 6.75 0.75C5.79522 0.75 4.87955 1.09038 4.20442 1.69627C3.52928 2.30216 3.15 3.12392 3.15 3.98077V6.67308M2.55 14.75H10.95C11.4274 14.75 11.8852 14.5798 12.2228 14.2769C12.5604 13.9739 12.75 13.563 12.75 13.1346V8.28846C12.75 7.86004 12.5604 7.44916 12.2228 7.14621C11.8852 6.84327 11.4274 6.67308 10.95 6.67308H2.55C2.07261 6.67308 1.61477 6.84327 1.27721 7.14621C0.939642 7.44916 0.75 7.86004 0.75 8.28846V13.1346C0.75 13.563 0.939642 13.9739 1.27721 14.2769C1.61477 14.5798 2.07261 14.75 2.55 14.75Z" stroke="#4A4846" stroke-width="1.5" stroke-linecap="round" stroke-linejoin="round"/>
</svg>
